<?xml version="1.0" encoding="UTF-8"?>
<svg id="Ebene_2" data-name="Ebene 2" xmlns="http://www.w3.org/2000/svg" viewBox="0 0 325.97 85">
  <defs>
    <style>
      .cls-1 {
        fill: #101010;
        stroke-width: 0px;
      }
    </style>
  </defs>
  <g id="Ebene_1-2" data-name="Ebene 1">
    <g>
      <g>
        <path class="cls-1" d="M90.3,48.03c0,4.34-3.42,6.97-9.9,6.97h-10.39v-25h10.3c6.48,0,9.14,3.03,9.14,6.58s-2.63,5.2-6.18,5.62c4.28.23,7.04,2.07,7.04,5.82ZM75.2,34.34v5.66h5.3c2.27,0,3.58-.89,3.58-2.8s-1.32-2.86-3.58-2.86h-5.3ZM80.72,50.66c2.8,0,4.21-1.15,4.21-3.16s-1.41-3.16-4.21-3.16h-5.53v6.32h5.53Z"/>
        <path class="cls-1" d="M98.26,50.66h12.3v4.34h-17.5v-25h17.2v4.34h-12.01v5.66h11.78v4.34h-11.78v6.32Z"/>
        <path class="cls-1" d="M132.86,55l-2.14-6.74h-10.92l-2.14,6.74h-5.46l8.29-25h9.54l8.29,25h-5.46ZM121.18,43.91h8.16l-4.08-12.86-4.08,12.86Z"/>
        <path class="cls-1" d="M159.17,30h5.17v25h-10.03l-8.26-24.14v24.14h-5.16v-25h10.07l8.22,24.14v-24.14Z"/>
        <path class="cls-1" d="M167.91,47.3h5.43c.36,2.66,2.53,3.98,5.26,3.98,3.49,0,5.49-1.28,5.49-3.22s-1.58-2.6-4.97-3.36l-3.55-.79c-4.18-.89-6.94-2.99-6.94-6.94,0-4.34,4.21-7.37,9.67-7.37,6.15,0,9.6,2.89,10.33,7.07h-5.43c-.66-2.07-2.43-2.96-4.9-2.96s-4.54,1.05-4.54,2.8,1.35,2.37,4.8,3.16l3.55.79c4.7,1.02,7.14,3.09,7.14,7.07,0,4.93-4.34,7.86-10.86,7.86-5.69,0-9.84-2.99-10.49-8.09Z"/>
        <path class="cls-1" d="M214.03,55h-1.91l-3.95-4.44c-1.78,2.66-4.41,4.8-8.22,4.8-4.38,0-8.06-2.47-8.06-7.11,0-4.37,3.16-6.41,6.87-8.22l-.36-.39c-1.51-1.71-2.57-3.09-2.57-5.03,0-2.63,2.14-4.97,5.46-4.97s5.43,2.14,5.43,5c0,2.7-2.5,4.14-5.26,5.49l-.53.26,7.11,7.93,3.65-6.15h1.51l-4.28,7.14,5.1,5.69ZM207.28,49.57l-7.63-8.55c-3.78,1.88-6.22,3.62-6.22,7.17,0,3.85,3.19,5.99,6.55,5.99,3.72,0,5.79-2.17,7.3-4.61ZM199.72,39.01l.36.39.46-.23c2.7-1.35,4.64-2.37,4.64-4.54,0-2.63-1.71-3.82-3.88-3.82s-3.95,1.41-3.95,3.78c0,1.64,1.02,2.89,2.37,4.41Z"/>
        <path class="cls-1" d="M237.54,48.03c0,4.34-3.42,6.97-9.9,6.97h-10.39v-25h10.3c6.48,0,9.14,3.03,9.14,6.58s-2.63,5.2-6.18,5.62c4.28.23,7.04,2.07,7.04,5.82ZM222.44,34.34v5.66h5.3c2.27,0,3.58-.89,3.58-2.8s-1.32-2.86-3.58-2.86h-5.3ZM227.97,50.66c2.8,0,4.21-1.15,4.21-3.16s-1.41-3.16-4.21-3.16h-5.53v6.32h5.53Z"/>
        <path class="cls-1" d="M260.69,30l-9.34,14.84v10.16h-5.2v-10.1l-9.34-14.9h5.85l6.05,10,6.05-10h5.92Z"/>
        <path class="cls-1" d="M282.59,30v4.34h-7.76v20.66h-5.2v-20.66h-7.76v-4.34h20.72Z"/>
        <path class="cls-1" d="M289.98,50.66h12.3v4.34h-17.5v-25h17.2v4.34h-12.01v5.66h11.78v4.34h-11.78v6.32Z"/>
        <path class="cls-1" d="M304.62,47.3h5.43c.36,2.66,2.53,3.98,5.26,3.98,3.49,0,5.49-1.28,5.49-3.22s-1.58-2.6-4.97-3.36l-3.55-.79c-4.18-.89-6.94-2.99-6.94-6.94,0-4.34,4.21-7.37,9.67-7.37,6.15,0,9.6,2.89,10.33,7.07h-5.43c-.66-2.07-2.43-2.96-4.9-2.96s-4.54,1.05-4.54,2.8,1.35,2.37,4.8,3.16l3.55.79c4.7,1.02,7.14,3.09,7.14,7.07,0,4.93-4.34,7.86-10.86,7.86-5.69,0-9.84-2.99-10.49-8.09Z"/>
      </g>
      <g>
        <rect class="cls-1" x="20" y="10" width="10" height="10"/>
        <rect class="cls-1" x="10" width="10" height="10"/>
        <path class="cls-1" d="M40,20h-10v10c0,5.51-4.49,10-10,10s-10-4.49-10-10v-10H0v10c0,11.03,8.97,20,20,20s20-8.97,20-20h10v-10h-10Z"/>
        <path class="cls-1" d="M30,55v10c0,5.51-4.49,10-10,10s-10-4.49-10-10v-10H0v10c0,11.03,8.97,20,20,20s20-8.97,20-20h10v-10h-20Z"/>
      </g>
    </g>
  </g>
</svg>